<?xml version="1.0" standalone="no"?>
<!DOCTYPE svg PUBLIC "-//W3C//DTD SVG 20010904//EN"
 "http://www.w3.org/TR/2001/REC-SVG-20010904/DTD/svg10.dtd">
<svg version="1.0" xmlns="http://www.w3.org/2000/svg"
 width="234.000000pt" height="234.000000pt" viewBox="0 0 234.000000 234.000000"
 preserveAspectRatio="xMidYMid meet">
<metadata>
Created by potrace 1.11, written by Peter Selinger 2001-2013
</metadata>
<g transform="translate(0.000000,234.000000) scale(0.100000,-0.100000)"
fill="#000000" stroke="none">
<path d="M474 2300 c-17 -4 -44 -14 -60 -23 -47 -27 -124 -57 -145 -57 -13 0
-18 -4 -13 -12 5 -7 3 -8 -5 -3 -12 7 -96 -24 -87 -32 2 -3 -4 -13 -13 -22
-10 -10 -32 -53 -50 -97 -18 -43 -41 -97 -52 -120 -21 -44 -27 -178 -9 -189
20 -12 47 -81 60 -148 8 -44 18 -71 30 -77 9 -5 24 -37 34 -74 11 -40 30 -79
50 -103 18 -21 36 -47 40 -59 3 -11 14 -29 24 -40 33 -38 100 -141 116 -178
20 -48 86 -133 109 -141 16 -6 12 -13 -24 -52 -39 -43 -139 -235 -139 -269 0
-9 -10 -25 -22 -36 -13 -11 -17 -16 -9 -12 11 5 12 -2 6 -37 l-7 -44 31 30
c18 16 34 39 37 51 3 13 24 31 50 44 24 13 44 27 44 32 0 5 4 7 9 4 5 -4 28
15 50 40 41 46 51 51 31 13 -6 -10 -8 -19 -6 -19 8 0 46 77 46 93 0 8 9 25 21
38 l20 24 -5 -50 -5 -50 14 34 c8 18 15 44 15 57 0 13 4 24 8 24 4 0 37 -30
72 -66 67 -67 164 -136 238 -168 23 -11 42 -24 42 -30 0 -6 -12 -58 -26 -116
-28 -114 -36 -251 -16 -285 10 -17 12 -11 13 40 1 33 5 74 9 90 9 34 13 25 10
-23 -1 -18 1 -51 5 -72 6 -36 9 -39 27 -29 14 8 19 20 18 47 -1 20 -1 71 0
112 l2 75 9 -50 c29 -178 32 -187 40 -174 5 8 6 28 3 44 -6 29 -5 29 10 10 19
-25 20 -13 2 67 -29 134 -27 137 25 33 43 -88 56 -103 34 -40 -6 17 -4 17 14
-4 28 -31 27 -14 -3 40 -55 101 -38 116 28 24 22 -30 42 -53 44 -50 3 2 0 11
-7 18 -6 8 -9 23 -5 33 5 16 4 16 -5 4 -9 -13 -11 -12 -11 5 0 11 -16 44 -35
73 -20 28 -34 52 -32 52 3 0 32 -27 65 -60 42 -42 61 -56 65 -46 4 9 -16 35
-49 66 -63 59 -65 80 -3 31 40 -33 64 -38 34 -7 -9 9 -12 16 -7 16 5 0 29 -28
53 -62 23 -35 46 -65 50 -68 10 -8 124 -181 143 -217 17 -34 33 -46 21 -15
-10 24 -24 82 -19 82 2 0 10 -12 18 -27 14 -28 14 -28 14 21 0 54 -54 193 -91
233 -11 13 -17 23 -13 23 15 0 -18 32 -41 41 -14 5 -23 17 -23 29 0 24 4 25
25 3 14 -13 18 -14 25 -2 6 9 23 12 50 10 30 -2 56 5 100 28 33 17 64 31 70
31 6 0 20 -21 31 -47 11 -27 24 -57 30 -68 13 -29 35 -122 44 -182 12 -91 29
-76 23 20 -3 48 -4 87 -3 87 2 0 13 -30 25 -68 21 -65 48 -123 35 -75 -5 19
-3 22 11 16 14 -5 16 -3 10 13 -21 50 -63 183 -69 214 -5 22 13 -4 48 -75 46
-94 54 -105 54 -77 1 18 -3 40 -9 50 -22 40 -71 164 -68 173 2 5 26 -27 53
-71 27 -44 53 -80 57 -80 18 0 6 48 -20 80 -34 43 -86 140 -75 140 4 0 29 -23
55 -52 27 -28 51 -48 55 -45 6 6 -26 52 -65 93 -12 12 -18 25 -15 28 4 3 0 6
-7 6 -7 0 -11 3 -7 6 3 4 29 -12 57 -36 27 -23 50 -37 50 -32 0 12 -17 31 -56
61 -45 35 -19 35 43 0 43 -24 53 -27 40 -12 -10 11 -35 28 -57 38 -56 25 -51
39 10 32 105 -13 149 -50 283 -239 43 -61 107 -132 113 -125 2 2 3 200 2 439
l-3 435 -100 -33 c-119 -41 -141 -38 -247 32 -97 63 -96 68 8 60 82 -6 87 -5
64 8 -22 14 -23 15 -5 16 40 1 -8 20 -55 21 l-45 2 60 12 c66 13 59 23 -20 27
l-50 3 65 17 65 17 -75 -4 c-97 -6 -118 7 -40 24 59 13 86 35 33 26 -110 -19
-138 -23 -140 -21 -6 5 45 26 102 42 82 23 53 29 -39 9 -104 -23 -111 -15 -19
20 92 35 74 45 -29 16 -39 -11 -74 -18 -76 -16 -3 3 25 19 62 36 37 17 65 33
63 36 -3 2 -37 -6 -76 -18 -40 -11 -75 -19 -78 -16 -3 3 26 22 63 41 82 42 74
45 -26 11 -40 -14 -75 -23 -77 -21 -2 2 26 22 62 46 36 23 65 44 65 46 0 4
-47 -14 -135 -50 l-40 -17 40 36 c22 20 52 43 68 52 15 10 27 21 27 25 0 9
-43 -9 -92 -39 -75 -46 -78 -22 -6 41 29 25 48 46 43 46 -6 0 -43 -20 -83 -45
-39 -25 -72 -41 -72 -35 0 5 27 36 60 68 33 33 60 62 60 66 0 13 -19 4 -70
-34 -67 -50 -92 -39 -39 18 58 61 64 72 45 72 -10 0 -42 -24 -73 -52 l-56 -53
8 35 c3 19 15 42 25 51 25 21 60 80 60 99 -1 8 -25 -12 -55 -45 -61 -67 -69
-59 -27 30 18 38 26 67 22 80 -6 16 -13 10 -45 -40 -21 -33 -44 -75 -52 -94
-8 -18 -17 -31 -19 -28 -6 6 37 131 61 178 15 28 13 49 -5 49 -4 0 -18 -16
-29 -36 -29 -48 -34 -39 -16 24 11 36 13 58 6 70 -8 15 -12 11 -26 -22 -9 -21
-18 -37 -20 -35 -2 2 0 33 4 69 5 36 8 66 7 67 0 1 -8 -4 -16 -10 -34 -27 -71
-100 -115 -232 -26 -77 -54 -152 -63 -167 -22 -38 -55 -36 -83 5 -22 31 -92
119 -115 143 -6 7 -16 27 -23 46 -32 85 -56 128 -82 147 -15 12 -31 21 -35 21
-4 0 -25 15 -48 34 -23 18 -66 40 -96 49 -63 17 -230 28 -276 17z m-264 -120
c-8 -5 -19 -10 -25 -10 -5 0 -3 5 5 10 8 5 20 10 25 10 6 0 3 -5 -5 -10z m633
-427 c4 -3 -2 -13 -13 -20 -17 -12 -24 -12 -36 -2 -12 10 -12 14 -2 20 16 10
42 11 51 2z m108 -37 c52 -51 69 -78 69 -110 0 -18 7 -48 16 -66 9 -18 19 -52
22 -75 4 -36 7 -42 23 -38 11 3 19 0 19 -6 0 -6 -7 -11 -15 -11 -21 0 -27 -19
-16 -55 9 -29 10 -29 16 -7 10 30 25 28 25 -4 0 -17 -6 -28 -20 -31 -22 -6
-28 -48 -7 -56 8 -3 6 -7 -7 -12 -11 -5 -21 -3 -26 5 -5 9 -9 9 -14 1 -11 -17
-26 -3 -26 24 0 13 -4 26 -8 29 -5 3 -9 19 -10 36 -1 33 -19 67 -54 102 -11
11 -16 23 -11 27 9 6 12 39 15 140 1 42 -3 57 -17 67 -10 8 -15 17 -12 21 4 3
0 15 -10 25 -15 17 -15 18 4 18 11 0 31 -11 44 -24z m127 -22 c1 -14 9 -35 17
-47 8 -12 15 -39 15 -61 0 -42 -9 -45 -14 -5 -2 13 -9 38 -15 54 -18 44 -25
85 -14 85 5 0 10 -12 11 -26z m-834 -58 c-6 -16 -50 -33 -61 -23 -3 3 10 15
28 26 37 22 43 22 33 -3z m946 -72 c0 -8 -4 -12 -10 -9 -5 3 -10 10 -10 16 0
5 5 9 10 9 6 0 10 -7 10 -16z m-730 -144 c0 -22 -3 -40 -8 -40 -4 0 -8 18 -9
40 -1 22 3 40 8 40 5 0 9 -18 9 -40z m5 -60 c3 -5 1 -10 -4 -10 -6 0 -11 5
-11 10 0 6 2 10 4 10 3 0 8 -4 11 -10z m635 -70 c0 -5 -4 -10 -10 -10 -5 0
-10 5 -10 10 0 6 5 10 10 10 6 0 10 -4 10 -10z m-706 -19 c2 -3 -20 -6 -50 -7
-37 0 -50 3 -44 11 9 11 87 8 94 -4z"/>
</g>
</svg>
